<svg xmlns="http://www.w3.org/2000/svg" xmlns:xlink="http://www.w3.org/1999/xlink" width="500" zoomAndPan="magnify" viewBox="0 0 375 374.999991" height="500" preserveAspectRatio="xMidYMid meet" version="1.0"><defs><filter x="0%" y="0%" width="100%" height="100%" id="ae6cf8bb1f"><feColorMatrix values="0 0 0 0 1 0 0 0 0 1 0 0 0 0 1 0 0 0 1 0" color-interpolation-filters="sRGB"/></filter><g/><clipPath id="3a36599a01"><path d="M 216 125.335938 L 235 125.335938 L 235 139 L 216 139 Z M 216 125.335938 " clip-rule="nonzero"/></clipPath><clipPath id="7ea0a64177"><path d="M 206 140 L 246.546875 140 L 246.546875 179 L 206 179 Z M 206 140 " clip-rule="nonzero"/></clipPath><clipPath id="5074682f13"><path d="M 202.296875 161 L 223 161 L 223 180.835938 L 202.296875 180.835938 Z M 202.296875 161 " clip-rule="nonzero"/></clipPath><mask id="5670db2abc"><g filter="url(#ae6cf8bb1f)"><rect x="-37.5" width="450" fill="#000000" y="-37.499999" height="449.999989" fill-opacity="0.8"/></g></mask><clipPath id="a777093478"><rect x="0" width="159" y="0" height="16"/></clipPath></defs><g clip-path="url(#3a36599a01)"><path fill="#fafafa" d="M 217.992188 138.574219 C 218.730469 138.574219 219.328125 137.972656 219.328125 137.234375 L 219.328125 134.648438 C 219.328125 131.300781 222.054688 128.574219 225.414062 128.574219 C 228.769531 128.574219 231.496094 131.300781 231.496094 134.648438 L 231.496094 137.234375 C 231.496094 137.972656 232.097656 138.574219 232.832031 138.574219 C 233.570312 138.574219 234.171875 137.972656 234.171875 137.234375 L 234.171875 135.011719 C 234.171875 130.339844 230.664062 126.234375 225.992188 125.921875 C 220.910156 125.59375 216.65625 129.632812 216.65625 134.648438 L 216.65625 137.234375 C 216.65625 137.972656 217.253906 138.574219 217.992188 138.574219 Z M 217.992188 138.574219 " fill-opacity="1" fill-rule="nonzero"/></g><g clip-path="url(#7ea0a64177)"><path fill="#25d366" d="M 246.101562 173.320312 L 243.160156 144.71875 C 242.925781 142.441406 241.011719 140.722656 238.726562 140.722656 L 212.101562 140.722656 C 209.8125 140.722656 207.898438 142.453125 207.664062 144.71875 L 206.925781 151.839844 C 206.433594 156.621094 210.980469 160.351562 215.566406 158.949219 L 218.058594 158.191406 C 220.890625 157.324219 224.054688 158.757812 225.167969 161.902344 C 225.550781 162.992188 225.5 164.191406 225.15625 165.300781 L 224.054688 168.894531 C 222.539062 173.855469 226.246094 178.871094 231.433594 178.871094 L 241.097656 178.871094 C 244.082031 178.859375 246.414062 176.28125 246.101562 173.320312 Z M 246.101562 173.320312 " fill-opacity="1" fill-rule="nonzero"/></g><g clip-path="url(#5074682f13)"><path fill="#fafafa" d="M 219 161.25 L 204.597656 165.644531 C 202.5 166.285156 202.351562 169.195312 204.371094 170.050781 L 207.804688 171.492188 C 209.621094 172.261719 211.074219 173.707031 211.84375 175.535156 L 213.289062 178.964844 C 214.144531 180.988281 217.050781 180.835938 217.695312 178.742188 L 222.089844 164.339844 C 222.675781 162.449219 220.902344 160.671875 219 161.25 Z M 219 161.25 " fill-opacity="1" fill-rule="nonzero"/></g><g fill="#25d366" fill-opacity="1"><g transform="translate(99.570394, 221.272428)"><g><path d="M 2.109375 0 L 2.109375 -47.75 L 21.234375 -47.75 L 21.234375 -38.53125 L 11.84375 -38.53125 L 11.84375 -29.25 L 20.84375 -29.25 L 20.84375 -20.234375 L 11.84375 -20.234375 L 11.84375 -9.28125 L 21.84375 -9.28125 L 21.84375 0 Z M 2.109375 0 "/></g></g></g><g fill="#25d366" fill-opacity="1"><g transform="translate(122.470169, 221.272428)"><g><path d="M 0.78125 0 L 0.78125 -5.953125 L 10.890625 -33.015625 L 1.21875 -33.015625 L 1.21875 -40.6875 L 20.953125 -40.6875 L 20.953125 -34.078125 L 11.390625 -7.28125 L 21.0625 -7.28125 L 21.0625 0 Z M 0.78125 0 "/></g></g></g><g fill="#25d366" fill-opacity="1"><g transform="translate(143.924818, 221.272428)"><g><path d="M 1.171875 0.609375 L 5.84375 0.609375 C 6.507812 0.609375 6.84375 0.332031 6.84375 -0.21875 C 6.84375 -0.476562 6.820312 -0.679688 6.78125 -0.828125 L 0.4375 -40.6875 L 9.734375 -40.6875 L 11.5625 -20.84375 L 12.453125 -10.734375 L 13.515625 -20.84375 L 15.671875 -40.6875 L 25.015625 -40.6875 L 17.453125 2.109375 C 17.191406 3.703125 16.660156 4.878906 15.859375 5.640625 C 15.066406 6.398438 13.820312 6.78125 12.125 6.78125 L 1.171875 6.78125 Z M 1.171875 0.609375 "/></g></g></g><g fill="#fafafa" fill-opacity="1"><g transform="translate(169.554764, 221.272428)"><g><path d="M 2.109375 0 L 2.109375 -47.75 L 16.671875 -47.75 L 20.6875 -18.625 L 24.6875 -47.75 L 39.359375 -47.75 L 39.359375 0 L 30.625 0 L 30.625 -34.40625 L 25.125 0 L 16.5625 0 L 10.734375 -34.40625 L 10.734375 0 Z M 2.109375 0 "/></g></g></g><g mask="url(#5670db2abc)"><g transform="matrix(1, 0, 0, 1, 108, 233)"><g clip-path="url(#a777093478)"><g fill="#fafafa" fill-opacity="1"><g transform="translate(0.971489, 12.812704)"><g><path d="M 7.984375 0 L 6.875 -2.8125 L 2.484375 -2.8125 L 1.375 0 L 0.03125 0 L 3.953125 -9.625 L 5.4375 -9.625 L 9.3125 0 Z M 4.6875 -8.640625 L 4.625 -8.453125 C 4.507812 -8.078125 4.335938 -7.59375 4.109375 -7 L 2.890625 -3.828125 L 6.484375 -3.828125 L 5.25 -7.015625 C 5.125 -7.328125 5 -7.679688 4.875 -8.078125 Z M 4.6875 -8.640625 "/></g></g></g><g fill="#fafafa" fill-opacity="1"><g transform="translate(10.304168, 12.812704)"><g><path d="M 7.390625 0 L 2.25 -8.203125 L 2.28125 -7.546875 L 2.3125 -6.40625 L 2.3125 0 L 1.15625 0 L 1.15625 -9.625 L 2.671875 -9.625 L 7.875 -1.375 C 7.820312 -2.269531 7.796875 -2.914062 7.796875 -3.3125 L 7.796875 -9.625 L 8.96875 -9.625 L 8.96875 0 Z M 7.390625 0 "/></g></g></g><g fill="#fafafa" fill-opacity="1"><g transform="translate(20.408877, 12.812704)"><g><path d="M 5.3125 -4 L 5.3125 0 L 4.015625 0 L 4.015625 -4 L 0.3125 -9.625 L 1.75 -9.625 L 4.671875 -5.046875 L 7.59375 -9.625 L 9.03125 -9.625 Z M 5.3125 -4 "/></g></g></g><g fill="#fafafa" fill-opacity="1"><g transform="translate(29.741556, 12.812704)"><g><path d="M 4.921875 -8.5625 L 4.921875 0 L 3.625 0 L 3.625 -8.5625 L 0.3125 -8.5625 L 0.3125 -9.625 L 8.234375 -9.625 L 8.234375 -8.5625 Z M 4.921875 -8.5625 "/></g></g></g><g fill="#fafafa" fill-opacity="1"><g transform="translate(38.288541, 12.812704)"><g><path d="M 7.65625 0 L 7.65625 -4.46875 L 2.453125 -4.46875 L 2.453125 0 L 1.15625 0 L 1.15625 -9.625 L 2.453125 -9.625 L 2.453125 -5.5625 L 7.65625 -5.5625 L 7.65625 -9.625 L 8.96875 -9.625 L 8.96875 0 Z M 7.65625 0 "/></g></g></g><g fill="#fafafa" fill-opacity="1"><g transform="translate(48.39325, 12.812704)"><g><path d="M 1.296875 0 L 1.296875 -9.625 L 2.59375 -9.625 L 2.59375 0 Z M 1.296875 0 "/></g></g></g><g fill="#fafafa" fill-opacity="1"><g transform="translate(52.280728, 12.812704)"><g><path d="M 7.390625 0 L 2.25 -8.203125 L 2.28125 -7.546875 L 2.3125 -6.40625 L 2.3125 0 L 1.15625 0 L 1.15625 -9.625 L 2.671875 -9.625 L 7.875 -1.375 C 7.820312 -2.269531 7.796875 -2.914062 7.796875 -3.3125 L 7.796875 -9.625 L 8.96875 -9.625 L 8.96875 0 Z M 7.390625 0 "/></g></g></g><g fill="#fafafa" fill-opacity="1"><g transform="translate(62.385437, 12.812704)"><g><path d="M 0.703125 -4.859375 C 0.703125 -6.421875 1.117188 -7.628906 1.953125 -8.484375 C 2.796875 -9.347656 3.976562 -9.78125 5.5 -9.78125 C 6.5625 -9.78125 7.425781 -9.597656 8.09375 -9.234375 C 8.757812 -8.878906 9.269531 -8.300781 9.625 -7.5 L 8.390625 -7.140625 C 8.117188 -7.679688 7.738281 -8.078125 7.25 -8.328125 C 6.769531 -8.578125 6.175781 -8.703125 5.46875 -8.703125 C 4.351562 -8.703125 3.5 -8.363281 2.90625 -7.6875 C 2.320312 -7.019531 2.03125 -6.078125 2.03125 -4.859375 C 2.03125 -3.640625 2.34375 -2.675781 2.96875 -1.96875 C 3.59375 -1.269531 4.457031 -0.921875 5.5625 -0.921875 C 6.1875 -0.921875 6.769531 -1.015625 7.3125 -1.203125 C 7.863281 -1.398438 8.304688 -1.660156 8.640625 -1.984375 L 8.640625 -3.71875 L 5.765625 -3.71875 L 5.765625 -4.8125 L 9.84375 -4.8125 L 9.84375 -1.5 C 9.332031 -0.976562 8.707031 -0.570312 7.96875 -0.28125 C 7.226562 0 6.425781 0.140625 5.5625 0.140625 C 4.550781 0.140625 3.679688 -0.0546875 2.953125 -0.453125 C 2.222656 -0.859375 1.664062 -1.4375 1.28125 -2.1875 C 0.894531 -2.945312 0.703125 -3.835938 0.703125 -4.859375 Z M 0.703125 -4.859375 "/></g></g></g><g fill="#fafafa" fill-opacity="1"><g transform="translate(73.269008, 12.812704)"><g/></g></g><g fill="#fafafa" fill-opacity="1"><g transform="translate(77.156485, 12.812704)"><g><path d="M 7.984375 0 L 6.875 -2.8125 L 2.484375 -2.8125 L 1.375 0 L 0.03125 0 L 3.953125 -9.625 L 5.4375 -9.625 L 9.3125 0 Z M 4.6875 -8.640625 L 4.625 -8.453125 C 4.507812 -8.078125 4.335938 -7.59375 4.109375 -7 L 2.890625 -3.828125 L 6.484375 -3.828125 L 5.25 -7.015625 C 5.125 -7.328125 5 -7.679688 4.875 -8.078125 Z M 4.6875 -8.640625 "/></g></g></g><g fill="#fafafa" fill-opacity="1"><g transform="translate(86.489164, 12.812704)"><g><path d="M 7.390625 0 L 2.25 -8.203125 L 2.28125 -7.546875 L 2.3125 -6.40625 L 2.3125 0 L 1.15625 0 L 1.15625 -9.625 L 2.671875 -9.625 L 7.875 -1.375 C 7.820312 -2.269531 7.796875 -2.914062 7.796875 -3.3125 L 7.796875 -9.625 L 8.96875 -9.625 L 8.96875 0 Z M 7.390625 0 "/></g></g></g><g fill="#fafafa" fill-opacity="1"><g transform="translate(96.593873, 12.812704)"><g><path d="M 5.3125 -4 L 5.3125 0 L 4.015625 0 L 4.015625 -4 L 0.3125 -9.625 L 1.75 -9.625 L 4.671875 -5.046875 L 7.59375 -9.625 L 9.03125 -9.625 Z M 5.3125 -4 "/></g></g></g><g fill="#fafafa" fill-opacity="1"><g transform="translate(105.926553, 12.812704)"><g><path d="M 10.328125 0 L 8.765625 0 L 7.109375 -6.125 C 6.992188 -6.5 6.832031 -7.179688 6.625 -8.171875 C 6.507812 -7.648438 6.410156 -7.207031 6.328125 -6.84375 C 6.242188 -6.488281 5.617188 -4.207031 4.453125 0 L 2.90625 0 L 0.0625 -9.625 L 1.421875 -9.625 L 3.15625 -3.515625 C 3.351562 -2.742188 3.539062 -1.957031 3.71875 -1.15625 C 3.832031 -1.65625 3.957031 -2.195312 4.09375 -2.78125 C 4.238281 -3.375 4.875 -5.65625 6 -9.625 L 7.25 -9.625 L 8.921875 -3.640625 C 9.171875 -2.660156 9.367188 -1.832031 9.515625 -1.15625 L 9.578125 -1.390625 C 9.703125 -1.910156 9.800781 -2.335938 9.875 -2.671875 C 9.957031 -3.003906 10.601562 -5.320312 11.8125 -9.625 L 13.171875 -9.625 Z M 10.328125 0 "/></g></g></g><g fill="#fafafa" fill-opacity="1"><g transform="translate(119.133045, 12.812704)"><g><path d="M 7.65625 0 L 7.65625 -4.46875 L 2.453125 -4.46875 L 2.453125 0 L 1.15625 0 L 1.15625 -9.625 L 2.453125 -9.625 L 2.453125 -5.5625 L 7.65625 -5.5625 L 7.65625 -9.625 L 8.96875 -9.625 L 8.96875 0 Z M 7.65625 0 "/></g></g></g><g fill="#fafafa" fill-opacity="1"><g transform="translate(129.237754, 12.812704)"><g><path d="M 1.15625 0 L 1.15625 -9.625 L 8.453125 -9.625 L 8.453125 -8.5625 L 2.453125 -8.5625 L 2.453125 -5.46875 L 8.046875 -5.46875 L 8.046875 -4.421875 L 2.453125 -4.421875 L 2.453125 -1.0625 L 8.734375 -1.0625 L 8.734375 0 Z M 1.15625 0 "/></g></g></g><g fill="#fafafa" fill-opacity="1"><g transform="translate(138.570433, 12.812704)"><g><path d="M 7.953125 0 L 5.453125 -4 L 2.453125 -4 L 2.453125 0 L 1.15625 0 L 1.15625 -9.625 L 5.6875 -9.625 C 6.769531 -9.625 7.601562 -9.378906 8.1875 -8.890625 C 8.78125 -8.410156 9.078125 -7.738281 9.078125 -6.875 C 9.078125 -6.15625 8.867188 -5.550781 8.453125 -5.0625 C 8.035156 -4.582031 7.460938 -4.28125 6.734375 -4.15625 L 9.46875 0 Z M 7.765625 -6.859375 C 7.765625 -7.421875 7.570312 -7.847656 7.1875 -8.140625 C 6.8125 -8.441406 6.265625 -8.59375 5.546875 -8.59375 L 2.453125 -8.59375 L 2.453125 -5.03125 L 5.609375 -5.03125 C 6.296875 -5.03125 6.828125 -5.191406 7.203125 -5.515625 C 7.578125 -5.835938 7.765625 -6.285156 7.765625 -6.859375 Z M 7.765625 -6.859375 "/></g></g></g><g fill="#fafafa" fill-opacity="1"><g transform="translate(148.675142, 12.812704)"><g><path d="M 1.15625 0 L 1.15625 -9.625 L 8.453125 -9.625 L 8.453125 -8.5625 L 2.453125 -8.5625 L 2.453125 -5.46875 L 8.046875 -5.46875 L 8.046875 -4.421875 L 2.453125 -4.421875 L 2.453125 -1.0625 L 8.734375 -1.0625 L 8.734375 0 Z M 1.15625 0 "/></g></g></g></g></g></g><g fill="#fafafa" fill-opacity="1"><g transform="translate(211.329088, 221.272428)"><g><path d="M 9.34375 0.4375 C 6.1875 0.4375 4.023438 -0.609375 2.859375 -2.703125 C 1.691406 -4.796875 1.109375 -7.785156 1.109375 -11.671875 C 1.109375 -14.859375 1.523438 -17.304688 2.359375 -19.015625 C 3.191406 -20.722656 4.347656 -21.972656 5.828125 -22.765625 C 7.316406 -23.554688 9.582031 -24.4375 12.625 -25.40625 L 15.28125 -26.296875 L 15.28125 -30.46875 C 15.28125 -31.539062 15.066406 -32.363281 14.640625 -32.9375 C 14.222656 -33.507812 13.71875 -33.796875 13.125 -33.796875 C 12.601562 -33.796875 12.144531 -33.554688 11.75 -33.078125 C 11.363281 -32.597656 11.171875 -31.945312 11.171875 -31.125 L 11.171875 -28.6875 L 1.71875 -28.6875 L 1.71875 -30.015625 C 1.71875 -34.023438 2.65625 -36.878906 4.53125 -38.578125 C 6.40625 -40.285156 9.453125 -41.140625 13.671875 -41.140625 C 17.046875 -41.140625 19.789062 -40.257812 21.90625 -38.5 C 24.019531 -36.738281 25.078125 -34.242188 25.078125 -31.015625 L 25.078125 0 L 15.40625 0 L 15.40625 -4.84375 C 14.914062 -3.164062 14.144531 -1.863281 13.09375 -0.9375 C 12.039062 -0.0195312 10.789062 0.4375 9.34375 0.4375 Z M 13.171875 -7.109375 C 13.910156 -7.109375 14.4375 -7.414062 14.75 -8.03125 C 15.070312 -8.644531 15.234375 -9.394531 15.234375 -10.28125 L 15.234375 -21.625 C 13.785156 -21.070312 12.71875 -20.367188 12.03125 -19.515625 C 11.34375 -18.660156 11 -17.472656 11 -15.953125 L 11 -10.734375 C 11 -8.316406 11.722656 -7.109375 13.171875 -7.109375 Z M 13.171875 -7.109375 "/></g></g></g><g fill="#fafafa" fill-opacity="1"><g transform="translate(238.175186, 221.272428)"><g><path d="M 1.953125 -40.6875 L 11.671875 -40.6875 L 11.671875 -36.1875 C 12.148438 -37.78125 12.992188 -39.007812 14.203125 -39.875 C 15.410156 -40.75 16.898438 -41.1875 18.671875 -41.1875 L 18.671875 -33.078125 C 17.304688 -33.078125 15.796875 -32.878906 14.140625 -32.484375 C 12.492188 -32.097656 11.671875 -31.644531 11.671875 -31.125 L 11.671875 0 L 1.953125 0 Z M 1.953125 -40.6875 "/></g></g></g><g fill="#fafafa" fill-opacity="1"><g transform="translate(257.29539, 221.272428)"><g><path d="M 10.34375 0.4375 C 7.78125 0.4375 6.015625 -0.0976562 5.046875 -1.171875 C 4.085938 -2.242188 3.609375 -3.96875 3.609375 -6.34375 L 3.609375 -31.75 L 0.890625 -31.75 L 0.890625 -39.140625 L 3.609375 -39.140625 L 3.609375 -47.75 L 13.0625 -47.75 L 13.0625 -39.140625 L 15.84375 -39.140625 L 15.84375 -31.75 L 13.0625 -31.75 L 13.0625 -8.890625 C 13.0625 -8.191406 13.113281 -7.675781 13.21875 -7.34375 C 13.332031 -7.007812 13.632812 -6.84375 14.125 -6.84375 C 14.488281 -6.84375 14.835938 -6.859375 15.171875 -6.890625 C 15.503906 -6.929688 15.726562 -6.953125 15.84375 -6.953125 L 15.84375 -0.28125 C 15.289062 -0.132812 14.484375 0.0195312 13.421875 0.1875 C 12.367188 0.351562 11.34375 0.4375 10.34375 0.4375 Z M 10.34375 0.4375 "/></g></g></g></svg>